<svg width="26" height="26" viewBox="0 0 26 26" xmlns="http://www.w3.org/2000/svg"><g fill="none" fill-rule="evenodd"><path d="M0 0h26v26H0z"/><path d="M10.02 12.328c.05.05.09.1.127.155l.008.01a1 1 0 0 1-.11 1.226l-.024.022v.002L6.49 17.276a.994.994 0 0 1-1.416.002 1.003 1.003 0 0 1 .005-1.42l.703-.703.354-.353 1.98-.99-1.556.222H2.003a1 1 0 1 1 0-2h4.553l1.556.222-1.98-.99-1.06-1.058a.997.997 0 0 1 0-1.417.997.997 0 0 1 1.415.003l3.532 3.532zm8.02 1.488l1.556.222h4.554a1 1 0 1 0 0-2h-4.554l-1.555.222 1.98-.99.355-.353.704-.704a1 1 0 1 0-1.414-1.416l-3.53 3.532h-.002a1.006 1.006 0 0 0-.086 1.318l.006.007c.024.03.05.062.08.09l3.532 3.532a1 1 0 1 0 1.414-1.413l-1.06-1.058-1.98-.99z" fill="#4D4D4D"/></g></svg>