<svg width="26" height="26" viewBox="0 0 26 26" xmlns="http://www.w3.org/2000/svg"><g fill="none" fill-rule="evenodd"><path d="M0 0h26v26H0z"/><path d="M24.986 12.278c.05.05.09.1.127.155l.008.01a1.002 1.002 0 0 1-.11 1.226l-.022.022-.002.002-3.532 3.532a1.002 1.002 0 0 1-1.412-1.418l.704-.703.354-.353 1.98-.99-1.556.222H16.97a1 1 0 1 1 0-2h4.55l1.557.222-1.98-.99-1.06-1.058a.997.997 0 0 1 0-1.417.997.997 0 0 1 1.415.003l3.532 3.532zM2.894 13.763l1.556.223h4.553a1 1 0 1 0 0-2H4.45l-1.556.222 1.98-.99.354-.354.703-.703a.998.998 0 0 0 .006-1.416.994.994 0 0 0-1.416.002l-3.533 3.53v.002H.984l-.01.013a1.002 1.002 0 0 0-.284.697.984.984 0 0 0 .294.707v.002l3.533 3.53a.996.996 0 0 0 1.415.003.995.995 0 0 0-.002-1.417l-1.06-1.06-1.98-.99z" fill="#4D4D4D"/></g></svg>