<svg width="32" height="32" viewBox="0 0 32 32" xmlns="http://www.w3.org/2000/svg"><g fill="none" fill-rule="evenodd"><path d="M3.825 15.396c-.7-1.135-.522-2.446.024-3.797 1.92-4.097 4.764-5.876 7.958-6.47 1.012-.188 1.403-.19 2.39-.2C15.42 4.914 16.5 5 16.5 5s-.47.184-.77.27a16.49 16.49 0 0 0-1.86.657C9.45 7.785 9.422 16.523 7.85 17.457c-2.29 0-3.254-.808-4.027-2.06z" fill="#A54340"/><text font-family="Arial" font-size="14" fill="#FFF" transform="translate(3 5)"><tspan x="9" y="16">5</tspan></text><path d="M28 16c0-6.075-4.925-11-11-11S6 9.925 6 16s4.925 11 11 11 11-4.925 11-11z" fill="#E85253"/><path d="M16.992 4.856c-.97-.018-2.03-.078-3.728.096 4.528.187 8.7 2.71 10.383 7.998.207 1.863 2.75 3.888 4.37 4.02.03-.33.045-.663.045-1 0-6.075-4.996-11.003-11.07-11.114z" fill="#333"/></g></svg>